<svg id="Layer_1" data-name="Layer 1" xmlns="http://www.w3.org/2000/svg" viewBox="0 0 234 115.06"><defs><style>.cls-1{fill:#231f20;}</style></defs><path class="cls-1" d="M72.91,1.37l-7.84,8.89L77.43,43.11l3-1.66L69.29,11.77l8-9.2,2,.83-7.61,8.82,10.55,28.1a11.44,11.44,0,0,0,1.06-.83l2.49-2.11a21.74,21.74,0,0,0,2.86-2.56,51.81,51.81,0,0,0,6,15.37c-1.46-.1-2.52-.15-3.17-.15Q84.29,50,81,52.3l13.64,37L105.91,98h-38l10.4-8.74-8.37-22A83,83,0,0,0,57.16,83.2l-1.74-.45A96,96,0,0,1,68.69,66.24l.6-.75-1.43-3.31A67,67,0,0,0,53,79.51l-1.35-2.19q-3.93-6.25-10-14.24l-.75-.9q-5.81,12.88-5.8,20.94a18,18,0,0,0,1.62,8q1.62,3.27,7.8,11c.35.45.9,1.16,1.66,2.11H5.47l-1.51-2H42.31L41,100.6a49,49,0,0,1-6.52-9.38A18.64,18.64,0,0,1,33,83.35q0-7.68,6.25-22.91L35.91,57c-.66,1.6-1.48,4-2.49,7.08l-2.49,7.68A34.37,34.37,0,0,0,28.9,82a15.32,15.32,0,0,0,1.43,7,37.41,37.41,0,0,0,6,7.61c.3.3.75.78,1.36,1.43H0a44.86,44.86,0,0,0,17.07-15Q23.4,73.63,29.58,54l.3-1.05q-4-3.39-11.53-4.15a54.34,54.34,0,0,0,6.41-12.88L26,37.08l3.39,3.17a38.88,38.88,0,0,0,4.14,3.39l1.36-3.32L34,39.57q-3.77-3.32-6.33-5.35L27,33.69,28.22,32a58,58,0,0,1,7.69,6.11L46.16,10l-8-8.59Zm-22,15.44-12,31.65a105,105,0,0,1,9.87,11.6l3.47,4.83c.05,0,.3.37.75,1a7.11,7.11,0,0,0,.76-.83l1-1.28c.15-.2.43-.53.83-1a78.58,78.58,0,0,0-12.28-14.7L53,22.62Zm3.39,8.74L46,47.41a7.29,7.29,0,0,1,.76.9l3.09,3.47a74.65,74.65,0,0,1,6.33,8.44l.75,1.13a66.75,66.75,0,0,1,7.69-8.07ZM95.21,38.44q1.65,6.78,8.29,18.61c-1.11-.15-1.73-.23-1.89-.23l-6.1-.52q-4.14-.37-6-.38c-.2,0-.7,0-1.5.08l12.58,33.38,16.8,14.84H73.73l-1.43-2h40l-13.56-12L85.34,54.72A22.68,22.68,0,0,1,91.22,54a66.23,66.23,0,0,1,9,.68l-.91-1.66A65.86,65.86,0,0,1,92.87,37Z" transform="translate(-0.04 -0.09)"/><path class="cls-1" d="M116.21,10.41A75.55,75.55,0,0,1,154.64.09Q170.62.09,181,7t10.36,17.63q0,8.75-6.78,15.48T166,49.89a133.74,133.74,0,0,0,14.13,27.88q8.92,13.56,17.89,20.8l-1.12.38a99.45,99.45,0,0,0-22,10.85l-1.13.75-.37-2.41Q168.58,79,159.92,58.71l-.3-.75a55.73,55.73,0,0,1-13.94,3.84l-.61.07V90.06l13.26,14.16h-39l-1.21-2H154L143.11,90.58V60.22L144.7,60a50,50,0,0,0,14.39-3.39c-.3-.6-.48-1-.53-1.13l-.75-2.19c-.05-.15-.18-.45-.38-.9q-4.67,1.35-17.63,2.94l-.83.15V89.08l8.59,9H114.25l9.8-9V63.76l-.6.07A78.86,78.86,0,0,0,115.54,66l-.61.22-.68-1.5a45.22,45.22,0,0,1,5.2-1.74l4-1,.6-.15V58A40.7,40.7,0,0,0,113,59.91l-.83.31a36.51,36.51,0,0,1,1.51-4.9c.1-.2.45-1.33,1.06-3.39l.22-.68c2.26.15,4,.23,5.28.23a29.2,29.2,0,0,0,3.76-.23V14.18a45.3,45.3,0,0,0-7.15-3.55Zm22.76-2V49.06a21.91,21.91,0,0,0,4.14-.37V11.61a38.4,38.4,0,0,1,9.95-1.13q14.7,0,20,9.65a40.21,40.21,0,0,0-9.8-6.22,27,27,0,0,0-10.09-1.69,32.29,32.29,0,0,0-8.07.9V48.69l.83-.15q14.85-2.72,22-8.56a18.62,18.62,0,0,0,7.2-15.18A17.32,17.32,0,0,0,168.66,11q-6.48-5.46-16.35-5.46A27.7,27.7,0,0,0,139,8.45Zm36.39,45.21Q180.12,69.19,192.17,84a79.52,79.52,0,0,0,19.06,16.65,119,119,0,0,0-32.4,14l-.68.46-1.5-1.21a107.14,107.14,0,0,1,30.66-13.86q-21.69-14.47-34.13-46.27l-.45-1.28q23.06-8.74,23.05-26.67,0-7.39-5.95-16.13a22.78,22.78,0,0,1,7.61,17.63Q197.44,44.7,175.36,53.66Z" transform="translate(-0.04 -0.09)"/><path class="cls-1" d="M217.54,79.66a9.76,9.76,0,1,1,0,19.51,9.78,9.78,0,0,1-9.72-9.72,9.44,9.44,0,0,1,2.87-6.93A9.32,9.32,0,0,1,217.54,79.66Zm12.36,3.16A12.61,12.61,0,0,1,234,92.47a12.32,12.32,0,0,1-3.8,9,12.07,12.07,0,0,1-8.85,3.85,12.27,12.27,0,0,1-9.88-4.52l.53-.53a17.49,17.49,0,0,0,8.74,2.86,11.13,11.13,0,0,0,8.1-3.28,10.51,10.51,0,0,0,3.36-7.8,15.21,15.21,0,0,0-3-8.66Z" transform="translate(-0.04 -0.09)"/></svg>